<mxfile host="app.diagrams.net" agent="Mozilla/5.0 (Macintosh; Intel Mac OS X 10_15_7) AppleWebKit/537.36 (KHTML, like Gecko) Chrome/135.0.0.0 Safari/537.36" version="26.2.9">
  <diagram id="C5RBs43oDa-KdzZeNtuy" name="Page-1">
    <mxGraphModel grid="1" page="1" gridSize="10" guides="1" tooltips="1" connect="1" arrows="1" fold="1" pageScale="1" pageWidth="2339" pageHeight="3300" math="0" shadow="0">
      <root>
        <mxCell id="WIyWlLk6GJQsqaUBKTNV-0" />
        <mxCell id="WIyWlLk6GJQsqaUBKTNV-1" parent="WIyWlLk6GJQsqaUBKTNV-0" />
        <mxCell id="zkfFHV4jXpPFQw0GAbJ--0" value="Utente registrato" style="swimlane;fontStyle=2;align=center;verticalAlign=top;childLayout=stackLayout;horizontal=1;startSize=26;horizontalStack=0;resizeParent=1;resizeLast=0;collapsible=1;marginBottom=0;rounded=0;shadow=0;strokeWidth=1;" vertex="1" parent="WIyWlLk6GJQsqaUBKTNV-1">
          <mxGeometry x="530" y="530" width="160" height="160" as="geometry">
            <mxRectangle x="230" y="140" width="160" height="26" as="alternateBounds" />
          </mxGeometry>
        </mxCell>
        <mxCell id="zkfFHV4jXpPFQw0GAbJ--1" value="Nome&#xa;Cognome&#xa;Sesso&#xa;Nascita&#xa;Utente&#xa;Password&#xa;Email&#xa;" style="text;align=left;verticalAlign=top;spacingLeft=4;spacingRight=4;overflow=hidden;rotatable=0;points=[[0,0.5],[1,0.5]];portConstraint=eastwest;" vertex="1" parent="zkfFHV4jXpPFQw0GAbJ--0">
          <mxGeometry y="26" width="160" height="134" as="geometry" />
        </mxCell>
        <mxCell id="zkfFHV4jXpPFQw0GAbJ--17" value="Ordine" style="swimlane;fontStyle=0;align=center;verticalAlign=top;childLayout=stackLayout;horizontal=1;startSize=26;horizontalStack=0;resizeParent=1;resizeLast=0;collapsible=1;marginBottom=0;rounded=0;shadow=0;strokeWidth=1;" vertex="1" parent="WIyWlLk6GJQsqaUBKTNV-1">
          <mxGeometry x="990" y="480" width="160" height="130" as="geometry">
            <mxRectangle x="550" y="140" width="160" height="26" as="alternateBounds" />
          </mxGeometry>
        </mxCell>
        <mxCell id="zkfFHV4jXpPFQw0GAbJ--18" value="IdOrdine&#xa;Prezzo&#xa;Data&#xa;Pagato" style="text;align=left;verticalAlign=top;spacingLeft=4;spacingRight=4;overflow=hidden;rotatable=0;points=[[0,0.5],[1,0.5]];portConstraint=eastwest;" vertex="1" parent="zkfFHV4jXpPFQw0GAbJ--17">
          <mxGeometry y="26" width="160" height="104" as="geometry" />
        </mxCell>
        <mxCell id="zkfFHV4jXpPFQw0GAbJ--26" value="" style="endArrow=open;shadow=0;strokeWidth=1;rounded=0;curved=0;endFill=1;edgeStyle=elbowEdgeStyle;elbow=vertical;exitX=1;exitY=0.104;exitDx=0;exitDy=0;exitPerimeter=0;" edge="1" parent="WIyWlLk6GJQsqaUBKTNV-1" target="zkfFHV4jXpPFQw0GAbJ--17" source="zkfFHV4jXpPFQw0GAbJ--1">
          <mxGeometry x="0.5" y="41" relative="1" as="geometry">
            <mxPoint x="720" y="565" as="sourcePoint" />
            <mxPoint x="1022" y="592" as="targetPoint" />
            <mxPoint x="-40" y="32" as="offset" />
            <Array as="points">
              <mxPoint x="740" y="570" />
            </Array>
          </mxGeometry>
        </mxCell>
        <mxCell id="zkfFHV4jXpPFQw0GAbJ--27" value="1" style="resizable=0;align=left;verticalAlign=bottom;labelBackgroundColor=none;fontSize=12;" connectable="0" vertex="1" parent="zkfFHV4jXpPFQw0GAbJ--26">
          <mxGeometry x="-1" relative="1" as="geometry">
            <mxPoint y="-5" as="offset" />
          </mxGeometry>
        </mxCell>
        <mxCell id="zkfFHV4jXpPFQw0GAbJ--28" value="0..*" style="resizable=0;align=right;verticalAlign=bottom;labelBackgroundColor=none;fontSize=12;" connectable="0" vertex="1" parent="zkfFHV4jXpPFQw0GAbJ--26">
          <mxGeometry x="1" relative="1" as="geometry">
            <mxPoint x="-7" y="-5" as="offset" />
          </mxGeometry>
        </mxCell>
        <mxCell id="zkfFHV4jXpPFQw0GAbJ--29" value="esegue" style="text;html=1;resizable=0;points=[];;align=center;verticalAlign=middle;labelBackgroundColor=none;rounded=0;shadow=0;strokeWidth=1;fontSize=12;" vertex="1" connectable="0" parent="zkfFHV4jXpPFQw0GAbJ--26">
          <mxGeometry x="0.5" y="49" relative="1" as="geometry">
            <mxPoint x="-38" y="40" as="offset" />
          </mxGeometry>
        </mxCell>
        <mxCell id="IHpL0ISFt_evj4XZKEyK-3" value="" style="endArrow=classic;html=1;rounded=0;" edge="1" parent="WIyWlLk6GJQsqaUBKTNV-1">
          <mxGeometry width="50" height="50" relative="1" as="geometry">
            <mxPoint x="1071" y="670" as="sourcePoint" />
            <mxPoint x="1071" y="610" as="targetPoint" />
          </mxGeometry>
        </mxCell>
        <mxCell id="IHpL0ISFt_evj4XZKEyK-4" value="" style="endArrow=none;html=1;rounded=0;" edge="1" parent="WIyWlLk6GJQsqaUBKTNV-1">
          <mxGeometry width="50" height="50" relative="1" as="geometry">
            <mxPoint x="1011" y="670" as="sourcePoint" />
            <mxPoint x="1171" y="670" as="targetPoint" />
            <Array as="points">
              <mxPoint x="1081" y="670" />
            </Array>
          </mxGeometry>
        </mxCell>
        <mxCell id="IHpL0ISFt_evj4XZKEyK-7" value="" style="endArrow=none;html=1;rounded=0;" edge="1" parent="WIyWlLk6GJQsqaUBKTNV-1">
          <mxGeometry width="50" height="50" relative="1" as="geometry">
            <mxPoint x="1011" y="740" as="sourcePoint" />
            <mxPoint x="1011" y="670" as="targetPoint" />
          </mxGeometry>
        </mxCell>
        <mxCell id="IHpL0ISFt_evj4XZKEyK-8" value="" style="endArrow=none;html=1;rounded=0;" edge="1" parent="WIyWlLk6GJQsqaUBKTNV-1">
          <mxGeometry width="50" height="50" relative="1" as="geometry">
            <mxPoint x="1171" y="740" as="sourcePoint" />
            <mxPoint x="1171" y="670" as="targetPoint" />
          </mxGeometry>
        </mxCell>
        <mxCell id="IHpL0ISFt_evj4XZKEyK-9" value="Acquisto" style="swimlane;whiteSpace=wrap;html=1;" vertex="1" parent="WIyWlLk6GJQsqaUBKTNV-1">
          <mxGeometry x="895" y="740" width="176" height="120" as="geometry" />
        </mxCell>
        <mxCell id="8TetQhxrg5nsQOwS5m9b-0" value="Noleggio" style="swimlane;whiteSpace=wrap;html=1;" vertex="1" parent="WIyWlLk6GJQsqaUBKTNV-1">
          <mxGeometry x="1082" y="740" width="184" height="120" as="geometry" />
        </mxCell>
        <mxCell id="8TetQhxrg5nsQOwS5m9b-5" value="DurataNolo" style="text;html=1;align=center;verticalAlign=middle;resizable=0;points=[];autosize=1;strokeColor=none;fillColor=none;" vertex="1" parent="8TetQhxrg5nsQOwS5m9b-0">
          <mxGeometry y="28" width="80" height="30" as="geometry" />
        </mxCell>
        <mxCell id="8TetQhxrg5nsQOwS5m9b-15" value="Auto" style="swimlane;whiteSpace=wrap;html=1;" vertex="1" parent="WIyWlLk6GJQsqaUBKTNV-1">
          <mxGeometry x="1310" y="450" width="200" height="200" as="geometry" />
        </mxCell>
        <mxCell id="8TetQhxrg5nsQOwS5m9b-16" value="idAuto&lt;div&gt;Marca&lt;div&gt;Modello&lt;/div&gt;&lt;div&gt;Posti&lt;/div&gt;&lt;div&gt;Prezzo&lt;/div&gt;&lt;div&gt;Anno&amp;nbsp;&lt;/div&gt;&lt;div&gt;Alimentazione&lt;/div&gt;&lt;div&gt;Cilindrata&amp;nbsp;&lt;/div&gt;&lt;div&gt;Cavalli&lt;/div&gt;&lt;div&gt;QuantitÃ &lt;/div&gt;&lt;div&gt;&lt;br&gt;&lt;/div&gt;&lt;/div&gt;" style="text;html=1;align=left;verticalAlign=middle;resizable=0;points=[];autosize=1;strokeColor=none;fillColor=none;" vertex="1" parent="8TetQhxrg5nsQOwS5m9b-15">
          <mxGeometry x="4" y="23" width="100" height="170" as="geometry" />
        </mxCell>
        <mxCell id="8TetQhxrg5nsQOwS5m9b-18" value="" style="endArrow=classic;html=1;rounded=0;" edge="1" parent="WIyWlLk6GJQsqaUBKTNV-1">
          <mxGeometry width="50" height="50" relative="1" as="geometry">
            <mxPoint x="1150" y="560" as="sourcePoint" />
            <mxPoint x="1300" y="560" as="targetPoint" />
          </mxGeometry>
        </mxCell>
        <mxCell id="8TetQhxrg5nsQOwS5m9b-19" value="relativo" style="text;html=1;align=center;verticalAlign=middle;whiteSpace=wrap;rounded=0;" vertex="1" parent="WIyWlLk6GJQsqaUBKTNV-1">
          <mxGeometry x="1190" y="535" width="60" height="30" as="geometry" />
        </mxCell>
        <mxCell id="8TetQhxrg5nsQOwS5m9b-21" value="1..*" style="text;html=1;align=center;verticalAlign=middle;resizable=0;points=[];autosize=1;strokeColor=none;fillColor=none;" vertex="1" parent="WIyWlLk6GJQsqaUBKTNV-1">
          <mxGeometry x="1145" y="535" width="40" height="30" as="geometry" />
        </mxCell>
        <mxCell id="8TetQhxrg5nsQOwS5m9b-22" value="1" style="text;html=1;align=center;verticalAlign=middle;resizable=0;points=[];autosize=1;strokeColor=none;fillColor=none;" vertex="1" parent="WIyWlLk6GJQsqaUBKTNV-1">
          <mxGeometry x="1280" y="535" width="30" height="30" as="geometry" />
        </mxCell>
        <mxCell id="8TetQhxrg5nsQOwS5m9b-25" value="Dipendente" style="swimlane;fontStyle=2;align=center;verticalAlign=top;childLayout=stackLayout;horizontal=1;startSize=26;horizontalStack=0;resizeParent=1;resizeLast=0;collapsible=1;marginBottom=0;rounded=0;shadow=0;strokeWidth=1;" vertex="1" parent="WIyWlLk6GJQsqaUBKTNV-1">
          <mxGeometry x="1460" y="810" width="160" height="130" as="geometry">
            <mxRectangle x="230" y="140" width="160" height="26" as="alternateBounds" />
          </mxGeometry>
        </mxCell>
        <mxCell id="8TetQhxrg5nsQOwS5m9b-26" value="codiceD&#xa;Utente&#xa;Password&#xa;Email&#xa;" style="text;align=left;verticalAlign=top;spacingLeft=4;spacingRight=4;overflow=hidden;rotatable=0;points=[[0,0.5],[1,0.5]];portConstraint=eastwest;" vertex="1" parent="8TetQhxrg5nsQOwS5m9b-25">
          <mxGeometry y="26" width="160" height="84" as="geometry" />
        </mxCell>
        <mxCell id="8TetQhxrg5nsQOwS5m9b-28" value="" style="endArrow=classic;html=1;rounded=0;" edge="1" parent="WIyWlLk6GJQsqaUBKTNV-1">
          <mxGeometry width="50" height="50" relative="1" as="geometry">
            <mxPoint x="1480" y="810" as="sourcePoint" />
            <mxPoint x="1480" y="650" as="targetPoint" />
          </mxGeometry>
        </mxCell>
        <mxCell id="8TetQhxrg5nsQOwS5m9b-29" value="gestisce" style="text;html=1;align=center;verticalAlign=middle;resizable=0;points=[];autosize=1;strokeColor=none;fillColor=none;" vertex="1" parent="WIyWlLk6GJQsqaUBKTNV-1">
          <mxGeometry x="1470" y="720" width="70" height="30" as="geometry" />
        </mxCell>
        <mxCell id="8TetQhxrg5nsQOwS5m9b-30" value="0..*" style="text;html=1;align=center;verticalAlign=middle;resizable=0;points=[];autosize=1;strokeColor=none;fillColor=none;" vertex="1" parent="WIyWlLk6GJQsqaUBKTNV-1">
          <mxGeometry x="1475" y="785" width="40" height="30" as="geometry" />
        </mxCell>
        <mxCell id="8TetQhxrg5nsQOwS5m9b-31" value="0..*" style="text;html=1;align=center;verticalAlign=middle;resizable=0;points=[];autosize=1;strokeColor=none;fillColor=none;" vertex="1" parent="WIyWlLk6GJQsqaUBKTNV-1">
          <mxGeometry x="1470" y="648" width="40" height="30" as="geometry" />
        </mxCell>
        <mxCell id="8TetQhxrg5nsQOwS5m9b-32" value="Patente" style="swimlane;whiteSpace=wrap;html=1;" vertex="1" parent="WIyWlLk6GJQsqaUBKTNV-1">
          <mxGeometry x="740" y="950" width="200" height="110" as="geometry" />
        </mxCell>
        <mxCell id="8TetQhxrg5nsQOwS5m9b-33" value="&lt;div&gt;IDdoc&lt;/div&gt;&lt;div&gt;Scadenza&lt;/div&gt;&lt;div&gt;Rilascio&amp;nbsp;&lt;/div&gt;" style="text;html=1;align=left;verticalAlign=middle;resizable=0;points=[];autosize=1;strokeColor=none;fillColor=none;" vertex="1" parent="8TetQhxrg5nsQOwS5m9b-32">
          <mxGeometry x="10" y="25" width="80" height="60" as="geometry" />
        </mxCell>
        <mxCell id="8TetQhxrg5nsQOwS5m9b-38" value="" style="endArrow=classic;html=1;rounded=0;exitX=0.819;exitY=0.123;exitDx=0;exitDy=0;exitPerimeter=0;" edge="1" parent="WIyWlLk6GJQsqaUBKTNV-1" source="8TetQhxrg5nsQOwS5m9b-40">
          <mxGeometry width="50" height="50" relative="1" as="geometry">
            <mxPoint x="780" y="690" as="sourcePoint" />
            <mxPoint x="740" y="990" as="targetPoint" />
            <Array as="points">
              <mxPoint x="630" y="990" />
            </Array>
          </mxGeometry>
        </mxCell>
        <mxCell id="8TetQhxrg5nsQOwS5m9b-39" value="inserisce" style="text;html=1;align=center;verticalAlign=middle;resizable=0;points=[];autosize=1;strokeColor=none;fillColor=none;" vertex="1" parent="WIyWlLk6GJQsqaUBKTNV-1">
          <mxGeometry x="640" y="798" width="70" height="30" as="geometry" />
        </mxCell>
        <mxCell id="hWwhueGRxexTlxjILMJ--4" value="" style="endArrow=block;endFill=1;html=1;edgeStyle=orthogonalEdgeStyle;align=left;verticalAlign=top;rounded=0;exitX=0;exitY=0.5;exitDx=0;exitDy=0;entryX=1;entryY=0.5;entryDx=0;entryDy=0;" edge="1" parent="WIyWlLk6GJQsqaUBKTNV-1" source="8TetQhxrg5nsQOwS5m9b-26" target="8TetQhxrg5nsQOwS5m9b-32">
          <mxGeometry x="-1" relative="1" as="geometry">
            <mxPoint x="1295" y="958" as="sourcePoint" />
            <mxPoint x="1135" y="958" as="targetPoint" />
            <Array as="points">
              <mxPoint x="1460" y="890" />
              <mxPoint x="1210" y="890" />
              <mxPoint x="1210" y="1005" />
            </Array>
          </mxGeometry>
        </mxCell>
        <mxCell id="8TetQhxrg5nsQOwS5m9b-40" value="1" style="text;html=1;align=center;verticalAlign=middle;resizable=0;points=[];autosize=1;strokeColor=none;fillColor=none;" vertex="1" parent="WIyWlLk6GJQsqaUBKTNV-1">
          <mxGeometry x="605" y="690" width="30" height="30" as="geometry" />
        </mxCell>
        <mxCell id="8TetQhxrg5nsQOwS5m9b-41" value="1" style="text;html=1;align=center;verticalAlign=middle;resizable=0;points=[];autosize=1;strokeColor=none;fillColor=none;" vertex="1" parent="WIyWlLk6GJQsqaUBKTNV-1">
          <mxGeometry x="695" y="960" width="30" height="30" as="geometry" />
        </mxCell>
        <mxCell id="8TetQhxrg5nsQOwS5m9b-42" value="0..*" style="text;html=1;align=center;verticalAlign=middle;resizable=0;points=[];autosize=1;strokeColor=none;fillColor=none;" vertex="1" parent="WIyWlLk6GJQsqaUBKTNV-1">
          <mxGeometry x="1425" y="868" width="40" height="30" as="geometry" />
        </mxCell>
        <mxCell id="8TetQhxrg5nsQOwS5m9b-43" value="0..*" style="text;html=1;align=center;verticalAlign=middle;resizable=0;points=[];autosize=1;strokeColor=none;fillColor=none;" vertex="1" parent="WIyWlLk6GJQsqaUBKTNV-1">
          <mxGeometry x="935" y="978" width="40" height="30" as="geometry" />
        </mxCell>
        <mxCell id="8TetQhxrg5nsQOwS5m9b-44" value="verifica" style="text;html=1;align=center;verticalAlign=middle;resizable=0;points=[];autosize=1;strokeColor=none;fillColor=none;" vertex="1" parent="WIyWlLk6GJQsqaUBKTNV-1">
          <mxGeometry x="1135" y="978" width="60" height="30" as="geometry" />
        </mxCell>
        <mxCell id="8TetQhxrg5nsQOwS5m9b-45" value="Direttore" style="swimlane;whiteSpace=wrap;html=1;" vertex="1" parent="WIyWlLk6GJQsqaUBKTNV-1">
          <mxGeometry x="1376" y="-130" width="200" height="200" as="geometry" />
        </mxCell>
        <mxCell id="8TetQhxrg5nsQOwS5m9b-50" value="User&lt;div&gt;password&lt;/div&gt;&lt;div&gt;Nome&lt;/div&gt;&lt;div&gt;Cognome&lt;/div&gt;" style="text;html=1;align=left;verticalAlign=middle;resizable=0;points=[];autosize=1;strokeColor=none;fillColor=none;" vertex="1" parent="8TetQhxrg5nsQOwS5m9b-45">
          <mxGeometry x="10" y="30" width="80" height="70" as="geometry" />
        </mxCell>
        <mxCell id="8TetQhxrg5nsQOwS5m9b-57" value="" style="endArrow=classic;html=1;rounded=0;" edge="1" parent="8TetQhxrg5nsQOwS5m9b-45">
          <mxGeometry width="50" height="50" relative="1" as="geometry">
            <mxPoint y="100" as="sourcePoint" />
            <mxPoint x="-210" y="100" as="targetPoint" />
          </mxGeometry>
        </mxCell>
        <mxCell id="8TetQhxrg5nsQOwS5m9b-54" value="Statistica" style="swimlane;whiteSpace=wrap;html=1;" vertex="1" parent="WIyWlLk6GJQsqaUBKTNV-1">
          <mxGeometry x="960" y="-80" width="200" height="200" as="geometry" />
        </mxCell>
        <mxCell id="8TetQhxrg5nsQOwS5m9b-55" value="Fatturato&lt;div&gt;&lt;br&gt;&lt;div&gt;&lt;br&gt;&lt;/div&gt;&lt;/div&gt;" style="text;html=1;align=left;verticalAlign=middle;resizable=0;points=[];autosize=1;strokeColor=none;fillColor=none;" vertex="1" parent="8TetQhxrg5nsQOwS5m9b-54">
          <mxGeometry x="10" y="30" width="70" height="60" as="geometry" />
        </mxCell>
        <mxCell id="8TetQhxrg5nsQOwS5m9b-56" value="" style="endArrow=classic;html=1;rounded=0;entryX=-0.021;entryY=0.156;entryDx=0;entryDy=0;entryPerimeter=0;" edge="1" parent="8TetQhxrg5nsQOwS5m9b-54" target="zkfFHV4jXpPFQw0GAbJ--17">
          <mxGeometry width="50" height="50" relative="1" as="geometry">
            <mxPoint y="110" as="sourcePoint" />
            <mxPoint x="-15" y="510" as="targetPoint" />
            <Array as="points">
              <mxPoint x="-115" y="110" />
              <mxPoint x="-115" y="580" />
              <mxPoint x="-70" y="580" />
            </Array>
          </mxGeometry>
        </mxCell>
        <mxCell id="8TetQhxrg5nsQOwS5m9b-70" value="" style="endArrow=classic;html=1;rounded=0;" edge="1" parent="8TetQhxrg5nsQOwS5m9b-54">
          <mxGeometry width="50" height="50" relative="1" as="geometry">
            <mxPoint y="70" as="sourcePoint" />
            <mxPoint x="-373" y="270" as="targetPoint" />
            <Array as="points">
              <mxPoint x="-375" y="70" />
            </Array>
          </mxGeometry>
        </mxCell>
        <mxCell id="8TetQhxrg5nsQOwS5m9b-58" value="accede" style="text;html=1;align=center;verticalAlign=middle;resizable=0;points=[];autosize=1;strokeColor=none;fillColor=none;" vertex="1" parent="WIyWlLk6GJQsqaUBKTNV-1">
          <mxGeometry x="835" y="60" width="60" height="30" as="geometry" />
        </mxCell>
        <mxCell id="8TetQhxrg5nsQOwS5m9b-60" value="consulta" style="text;html=1;align=center;verticalAlign=middle;resizable=0;points=[];autosize=1;strokeColor=none;fillColor=none;" vertex="1" parent="WIyWlLk6GJQsqaUBKTNV-1">
          <mxGeometry x="1231" y="-60" width="70" height="30" as="geometry" />
        </mxCell>
        <mxCell id="8TetQhxrg5nsQOwS5m9b-63" value="Recensione" style="swimlane;whiteSpace=wrap;html=1;" vertex="1" parent="WIyWlLk6GJQsqaUBKTNV-1">
          <mxGeometry x="520" y="200" width="200" height="200" as="geometry" />
        </mxCell>
        <mxCell id="8TetQhxrg5nsQOwS5m9b-64" value="Commento&lt;br&gt;&lt;div&gt;Rating&lt;/div&gt;" style="text;html=1;align=left;verticalAlign=middle;resizable=0;points=[];autosize=1;strokeColor=none;fillColor=none;" vertex="1" parent="8TetQhxrg5nsQOwS5m9b-63">
          <mxGeometry x="10" y="30" width="80" height="40" as="geometry" />
        </mxCell>
        <mxCell id="8TetQhxrg5nsQOwS5m9b-66" value="inserisce" style="text;html=1;align=center;verticalAlign=middle;resizable=0;points=[];autosize=1;strokeColor=none;fillColor=none;" vertex="1" parent="WIyWlLk6GJQsqaUBKTNV-1">
          <mxGeometry x="625" y="460" width="70" height="30" as="geometry" />
        </mxCell>
        <mxCell id="8TetQhxrg5nsQOwS5m9b-67" value="1" style="text;html=1;align=center;verticalAlign=middle;resizable=0;points=[];autosize=1;strokeColor=none;fillColor=none;" vertex="1" parent="WIyWlLk6GJQsqaUBKTNV-1">
          <mxGeometry x="625" y="505" width="30" height="30" as="geometry" />
        </mxCell>
        <mxCell id="8TetQhxrg5nsQOwS5m9b-69" value="" style="endArrow=classic;html=1;rounded=0;entryX=0.125;entryY=0;entryDx=0;entryDy=0;entryPerimeter=0;exitX=0.122;exitY=0.856;exitDx=0;exitDy=0;exitPerimeter=0;" edge="1" parent="WIyWlLk6GJQsqaUBKTNV-1" source="8TetQhxrg5nsQOwS5m9b-67" target="8TetQhxrg5nsQOwS5m9b-68">
          <mxGeometry width="50" height="50" relative="1" as="geometry">
            <mxPoint x="625" y="520" as="sourcePoint" />
            <mxPoint x="765" y="370" as="targetPoint" />
          </mxGeometry>
        </mxCell>
        <mxCell id="8TetQhxrg5nsQOwS5m9b-68" value="0..*" style="text;html=1;align=center;verticalAlign=middle;resizable=0;points=[];autosize=1;strokeColor=none;fillColor=none;" vertex="1" parent="WIyWlLk6GJQsqaUBKTNV-1">
          <mxGeometry x="620" y="400" width="40" height="30" as="geometry" />
        </mxCell>
        <mxCell id="8TetQhxrg5nsQOwS5m9b-71" value="Carta di credito" style="swimlane;whiteSpace=wrap;html=1;" vertex="1" parent="WIyWlLk6GJQsqaUBKTNV-1">
          <mxGeometry x="960" y="200" width="200" height="130" as="geometry" />
        </mxCell>
        <mxCell id="8TetQhxrg5nsQOwS5m9b-72" value="NomeT&lt;div&gt;CognomeT&lt;/div&gt;&lt;div&gt;Numero&lt;/div&gt;&lt;div&gt;Scadenza&lt;/div&gt;&lt;div&gt;Cvv&lt;/div&gt;" style="text;html=1;align=left;verticalAlign=middle;resizable=0;points=[];autosize=1;strokeColor=none;fillColor=none;" vertex="1" parent="8TetQhxrg5nsQOwS5m9b-71">
          <mxGeometry x="10" y="30" width="80" height="90" as="geometry" />
        </mxCell>
        <mxCell id="8TetQhxrg5nsQOwS5m9b-73" value="" style="endArrow=classic;html=1;rounded=0;exitX=0.557;exitY=-0.002;exitDx=0;exitDy=0;exitPerimeter=0;" edge="1" parent="WIyWlLk6GJQsqaUBKTNV-1" source="zkfFHV4jXpPFQw0GAbJ--17">
          <mxGeometry width="50" height="50" relative="1" as="geometry">
            <mxPoint x="1071" y="480" as="sourcePoint" />
            <mxPoint x="1080" y="340" as="targetPoint" />
          </mxGeometry>
        </mxCell>
        <mxCell id="8TetQhxrg5nsQOwS5m9b-74" value="pagato&amp;nbsp;" style="text;html=1;align=center;verticalAlign=middle;resizable=0;points=[];autosize=1;strokeColor=none;fillColor=none;" vertex="1" parent="WIyWlLk6GJQsqaUBKTNV-1">
          <mxGeometry x="1075" y="398" width="60" height="30" as="geometry" />
        </mxCell>
        <mxCell id="8TetQhxrg5nsQOwS5m9b-75" value="0..*" style="text;html=1;align=center;verticalAlign=middle;resizable=0;points=[];autosize=1;strokeColor=none;fillColor=none;" vertex="1" parent="WIyWlLk6GJQsqaUBKTNV-1">
          <mxGeometry x="1075" y="450" width="40" height="30" as="geometry" />
        </mxCell>
        <mxCell id="8TetQhxrg5nsQOwS5m9b-76" value="1" style="text;html=1;align=center;verticalAlign=middle;resizable=0;points=[];autosize=1;strokeColor=none;fillColor=none;" vertex="1" parent="WIyWlLk6GJQsqaUBKTNV-1">
          <mxGeometry x="1075" y="328" width="30" height="30" as="geometry" />
        </mxCell>
      </root>
    </mxGraphModel>
  </diagram>
</mxfile>
